<svg width="24.000000" height="24.000000" viewBox="0 0 24 24" fill="none" xmlns="http://www.w3.org/2000/svg" xmlns:xlink="http://www.w3.org/1999/xlink">
	<desc>
			Created with Pixso.
	</desc>
	<defs>
		<clipPath id="clip29_464">
			<rect id="Filled=ion:bug-outline" rx="-0.500000" width="23.000000" height="23.000000" transform="translate(0.500000 0.500000)" fill="white" fill-opacity="0"/>
		</clipPath>
	</defs>
	<rect id="Filled=ion:bug-outline" rx="-0.500000" width="23.000000" height="23.000000" transform="translate(0.500000 0.500000)" fill="#FFFFFF" fill-opacity="0"/>
	<g clip-path="url(#clip29_464)">
		<path id="Vector" d="M17.34 17.71C18.69 18.82 19.5 19.87 19.5 21.75M6.65 17.71C5.3 18.82 4.5 19.87 4.5 21.75M18 9.75C19.35 8.64 19.5 7.12 19.5 5.25M6 9.65C4.64 8.55 4.5 7.12 4.5 5.25M21.75 13.5L18 13.5M6 13.5L2.25 13.5M12 9L12 21" stroke="#000000" stroke-opacity="1.000000" stroke-width="1.500000" stroke-linejoin="round"/>
		<path id="Vector" d="M6 15L6 10.49C6 7.44 8.7 5.99 12 5.99C15.29 5.99 18 7.19 18 10.49L18 15C18 18.29 15.29 21 12 21C8.7 21 6 18.29 6 15Z" stroke="#000000" stroke-opacity="1.000000" stroke-width="1.500000" stroke-linejoin="round"/>
		<path id="Vector" d="M8.41 6.72C8.31 6.49 8.26 6.24 8.25 5.99C8.25 4.99 8.64 4.04 9.34 3.34C10.04 2.64 10.99 2.25 11.99 2.25L12 2.25C13 2.25 13.95 2.64 14.65 3.34C15.35 4.04 15.74 4.99 15.75 5.99C15.74 6.22 15.69 6.44 15.6 6.66" stroke="#000000" stroke-opacity="1.000000" stroke-width="1.500000" stroke-linejoin="round" stroke-linecap="round"/>
	</g>
</svg>
