<svg width="24.000000" height="24.000000" viewBox="0 0 24 24" fill="none" xmlns="http://www.w3.org/2000/svg" xmlns:xlink="http://www.w3.org/1999/xlink">
	<desc>
			Created with Pixso.
	</desc>
	<defs>
		<clipPath id="clip29_273">
			<rect id="Filled=True" rx="-0.500000" width="23.000000" height="23.000000" transform="translate(0.500000 0.500000)" fill="white" fill-opacity="0"/>
		</clipPath>
	</defs>
	<rect id="Filled=True" rx="-0.500000" width="23.000000" height="23.000000" transform="translate(0.500000 0.500000)" fill="#FFFFFF" fill-opacity="0"/>
	<g clip-path="url(#clip29_273)">
		<path id="Vector" d="M18.32 22.5C17.41 22.5 16.12 22.16 14.2 21.09C11.86 19.78 10.05 18.56 7.72 16.24C5.48 14 4.38 12.55 2.85 9.77C1.13 6.63 1.42 4.98 1.75 4.28C2.14 3.43 2.72 2.93 3.47 2.43C3.89 2.15 4.34 1.92 4.81 1.72C4.86 1.7 4.9 1.68 4.94 1.66C5.17 1.56 5.52 1.4 5.97 1.57C6.27 1.68 6.53 1.91 6.95 2.32C7.8 3.16 8.96 5.03 9.39 5.95C9.68 6.57 9.87 6.98 9.87 7.44C9.87 7.97 9.6 8.39 9.27 8.83C9.21 8.92 9.15 9 9.09 9.07C8.74 9.54 8.66 9.68 8.71 9.92C8.81 10.41 9.59 11.85 10.87 13.13C12.16 14.41 13.56 15.14 14.05 15.24C14.3 15.3 14.44 15.22 14.92 14.85C14.99 14.79 15.06 14.74 15.14 14.69C15.64 14.31 16.03 14.05 16.56 14.05L16.56 14.05C17.02 14.05 17.41 14.25 18.05 14.57C18.9 15 20.82 16.15 21.67 17C22.08 17.42 22.31 17.68 22.42 17.98C22.59 18.42 22.43 18.77 22.33 19.01C22.31 19.05 22.29 19.09 22.27 19.14C22.07 19.61 21.83 20.05 21.55 20.48C21.06 21.22 20.55 21.8 19.71 22.19C19.28 22.4 18.8 22.5 18.32 22.5Z" fill="#000000" fill-opacity="1.000000" fill-rule="nonzero"/>
	</g>
</svg>
