<svg width="24.000000" height="24.000000" viewBox="0 0 24 24" fill="none" xmlns="http://www.w3.org/2000/svg" xmlns:xlink="http://www.w3.org/1999/xlink">
	<desc>
			Created with Pixso.
	</desc>
	<defs>
		<clipPath id="clip29_436">
			<rect id="Filled=False" rx="-0.500000" width="23.000000" height="23.000000" transform="translate(0.500000 0.500000)" fill="white" fill-opacity="0"/>
		</clipPath>
	</defs>
	<rect id="Filled=False" rx="-0.500000" width="23.000000" height="23.000000" transform="translate(0.500000 0.500000)" fill="#FFFFFF" fill-opacity="0"/>
	<g clip-path="url(#clip29_436)">
		<path id="Vector" d="M15.18 4.99C14.92 4.69 14.56 4.5 14.15 4.5L9.84 4.5C9.43 4.5 9.07 4.69 8.81 4.99L7.56 6.96C7.3 7.27 6.96 7.5 6.56 7.5L3.75 7.5C3.35 7.5 2.97 7.65 2.68 7.93C2.4 8.22 2.25 8.6 2.25 9L2.25 18C2.25 18.39 2.4 18.77 2.68 19.06C2.97 19.34 3.35 19.5 3.75 19.5L20.25 19.5C20.64 19.5 21.02 19.34 21.31 19.06C21.59 18.77 21.75 18.39 21.75 18L21.75 9C21.75 8.6 21.59 8.22 21.31 7.93C21.02 7.65 20.64 7.5 20.25 7.5L17.48 7.5C17.07 7.5 16.69 7.27 16.43 6.96L15.18 4.99Z" stroke="#000000" stroke-opacity="1.000000" stroke-width="1.500000" stroke-linejoin="round"/>
		<path id="Vector" d="M5.81 7.4L5.81 6.37L4.68 6.37L4.68 7.4M15.73 13.36L15.73 12.74C15.73 12.03 15.53 11.33 15.15 10.73C14.77 10.13 14.22 9.65 13.58 9.35C12.94 9.05 12.22 8.93 11.51 9.02C10.81 9.11 10.14 9.4 9.59 9.85M8.25 12.13L8.25 12.75C8.25 13.46 8.45 14.15 8.83 14.75C9.21 15.35 9.75 15.83 10.39 16.14C11.03 16.44 11.75 16.56 12.45 16.47C13.16 16.38 13.82 16.1 14.37 15.65" stroke="#000000" stroke-opacity="1.000000" stroke-width="1.500000" stroke-linejoin="round"/>
		<path id="Vector" d="M9.18 12.75L8.25 11.81L7.31 12.75M16.68 12.75L15.75 13.68L14.81 12.75" stroke="#000000" stroke-opacity="1.000000" stroke-width="1.500000" stroke-linejoin="round"/>
	</g>
</svg>
