<svg width="15.750000" height="12.375000" viewBox="0 0 15.75 12.375" fill="none" xmlns="http://www.w3.org/2000/svg" xmlns:xlink="http://www.w3.org/1999/xlink">
	<desc>
			Created with Pixso.
	</desc>
	<defs/>
	<path id="Vector" d="M0 10.4C0 10.92 0.2 11.42 0.57 11.79C0.94 12.16 1.44 12.37 1.96 12.37L13.78 12.37C14.3 12.37 14.8 12.16 15.17 11.79C15.54 11.42 15.75 10.92 15.75 10.4L15.75 4.99L0 4.99L0 10.4ZM2.32 7.73C2.32 7.45 2.43 7.18 2.62 6.98C2.82 6.79 3.09 6.67 3.37 6.67L5.06 6.67C5.34 6.67 5.61 6.79 5.8 6.98C6 7.18 6.11 7.45 6.11 7.73L6.11 8.43C6.11 8.71 6 8.98 5.8 9.18C5.61 9.38 5.34 9.49 5.06 9.49L3.37 9.49C3.09 9.49 2.82 9.38 2.62 9.18C2.43 8.98 2.32 8.71 2.32 8.43L2.32 7.73ZM13.78 0L1.96 0C1.44 0 0.94 0.2 0.57 0.57C0.2 0.94 0 1.44 0 1.96L0 2.88L15.75 2.88L15.75 1.96C15.75 1.44 15.54 0.94 15.17 0.57C14.8 0.2 14.3 0 13.78 0Z" fill="#000000" fill-opacity="1.000000" fill-rule="nonzero"/>
</svg>
