<svg width="24.000000" height="24.000000" viewBox="0 0 24 24" fill="none" xmlns="http://www.w3.org/2000/svg" xmlns:xlink="http://www.w3.org/1999/xlink">
	<desc>
			Created with Pixso.
	</desc>
	<defs>
		<clipPath id="clip29_369">
			<rect id="Filled=True" rx="-0.500000" width="23.000000" height="23.000000" transform="translate(0.500000 0.500000)" fill="white" fill-opacity="0"/>
		</clipPath>
	</defs>
	<rect id="Filled=True" rx="-0.500000" width="23.000000" height="23.000000" transform="translate(0.500000 0.500000)" fill="#FFFFFF" fill-opacity="0"/>
	<g clip-path="url(#clip29_369)">
		<path id="Vector" d="M13.5 9L19.58 9C19.6 8.99 19.62 8.99 19.63 8.98C19.65 8.97 19.66 8.95 19.67 8.94C19.67 8.92 19.67 8.9 19.67 8.88C19.67 8.86 19.66 8.85 19.65 8.84L12.91 2.09C12.89 2.08 12.87 2.07 12.86 2.07C12.84 2.06 12.82 2.07 12.8 2.07C12.79 2.08 12.77 2.09 12.76 2.11C12.75 2.12 12.75 2.14 12.75 2.16L12.75 8.25C12.75 8.44 12.82 8.63 12.96 8.78C13.11 8.92 13.3 9 13.5 9ZM12 12.75C11.58 12.75 11.25 13.04 11.25 13.4L11.25 14.25L12.75 14.25L12.75 13.4C12.75 13.04 12.41 12.75 12 12.75Z" fill="#000000" fill-opacity="1.000000" fill-rule="nonzero"/>
		<path id="Vector" d="M20.06 10.5L13.5 10.5C12.9 10.5 12.33 10.26 11.9 9.84C11.48 9.41 11.25 8.84 11.25 8.25L11.25 1.68C11.25 1.63 11.23 1.59 11.19 1.55C11.16 1.51 11.11 1.5 11.06 1.5L6.75 1.5C5.95 1.5 5.19 1.81 4.62 2.37C4.06 2.94 3.75 3.7 3.75 4.5L3.75 19.5C3.75 20.29 4.06 21.05 4.62 21.62C5.19 22.18 5.95 22.5 6.75 22.5L17.25 22.5C18.04 22.5 18.8 22.18 19.37 21.62C19.93 21.05 20.25 20.29 20.25 19.5L20.25 10.68C20.25 10.63 20.23 10.59 20.19 10.55C20.16 10.51 20.11 10.5 20.06 10.5ZM15.75 18C15.75 18.39 15.59 18.77 15.31 19.06C15.02 19.34 14.64 19.5 14.25 19.5L9.75 19.5C9.35 19.5 8.97 19.34 8.68 19.06C8.4 18.77 8.25 18.39 8.25 18L8.25 15.75C8.25 15.35 8.4 14.97 8.68 14.68C8.97 14.4 9.35 14.25 9.75 14.25L9.75 13.4C9.75 12.21 10.75 11.25 12 11.25C13.24 11.25 14.25 12.21 14.25 13.4L14.25 14.25C14.64 14.25 15.02 14.4 15.31 14.68C15.59 14.97 15.75 15.35 15.75 15.75L15.75 18Z" fill="#000000" fill-opacity="1.000000" fill-rule="nonzero"/>
	</g>
</svg>
