<svg width="24.000000" height="24.000000" viewBox="0 0 24 24" fill="none" xmlns="http://www.w3.org/2000/svg" xmlns:xlink="http://www.w3.org/1999/xlink">
	<desc>
			Created with Pixso.
	</desc>
	<defs>
		<clipPath id="clip29_653">
			<rect id="Fill=False" rx="-0.500000" width="23.000000" height="23.000000" transform="translate(0.500000 0.500000)" fill="white" fill-opacity="0"/>
		</clipPath>
	</defs>
	<rect id="Fill=False" rx="-0.500000" width="23.000000" height="23.000000" transform="translate(0.500000 0.500000)" fill="#FFFFFF" fill-opacity="0"/>
	<g clip-path="url(#clip29_653)">
		<path id="Vector" d="M20.25 21C20.15 21 20.05 20.98 19.96 20.94C19.87 20.9 19.78 20.85 19.71 20.78L3.21 4.28C3.08 4.13 3.01 3.94 3.01 3.75C3.01 3.55 3.09 3.37 3.23 3.23C3.37 3.09 3.55 3.01 3.75 3.01C3.94 3.01 4.13 3.08 4.28 3.21L20.78 19.71C20.88 19.82 20.95 19.95 20.98 20.1C21.01 20.24 20.99 20.39 20.94 20.53C20.88 20.67 20.79 20.79 20.66 20.87C20.54 20.95 20.39 20.99 20.25 21ZM11.98 18C10.03 18 8.16 17.42 6.4 16.28C4.81 15.25 3.37 13.78 2.25 12.02L2.25 12.01C3.18 10.68 4.2 9.54 5.3 8.63C5.32 8.62 5.32 8.61 5.33 8.6C5.33 8.59 5.34 8.58 5.34 8.56C5.34 8.55 5.34 8.54 5.33 8.52C5.33 8.51 5.32 8.5 5.31 8.49L4.38 7.56C4.36 7.54 4.34 7.53 4.32 7.53C4.29 7.53 4.27 7.54 4.25 7.55C3.08 8.54 2 9.75 1.01 11.16C0.84 11.4 0.75 11.69 0.74 11.99C0.74 12.28 0.82 12.58 0.98 12.83C2.22 14.76 3.81 16.39 5.59 17.54C7.59 18.84 9.74 19.5 11.98 19.5C13.19 19.49 14.39 19.29 15.53 18.91C15.55 18.9 15.56 18.89 15.57 18.88C15.58 18.87 15.59 18.85 15.59 18.84C15.6 18.82 15.6 18.81 15.59 18.79C15.59 18.78 15.58 18.76 15.57 18.75L14.56 17.74C14.53 17.72 14.5 17.7 14.47 17.69C14.44 17.68 14.41 17.68 14.38 17.69C13.59 17.89 12.79 18 11.98 18ZM23 11.18C21.76 9.26 20.15 7.63 18.35 6.47C16.35 5.18 14.15 4.5 11.98 4.5C10.78 4.5 9.6 4.7 8.47 5.1C8.45 5.1 8.44 5.11 8.43 5.12C8.42 5.13 8.41 5.15 8.41 5.16C8.4 5.18 8.41 5.2 8.41 5.21C8.41 5.23 8.42 5.24 8.43 5.25L9.44 6.26C9.47 6.28 9.5 6.3 9.53 6.31C9.56 6.32 9.59 6.32 9.63 6.31C10.39 6.1 11.18 6 11.98 6C13.89 6 15.76 6.58 17.54 7.73C19.16 8.78 20.62 10.26 21.74 12C21.74 12 21.75 12 21.75 12C21.75 12 21.74 12 21.74 12C20.93 13.29 19.91 14.44 18.74 15.41C18.73 15.42 18.72 15.43 18.71 15.44C18.71 15.45 18.7 15.47 18.7 15.48C18.7 15.49 18.7 15.51 18.71 15.52C18.71 15.53 18.72 15.54 18.73 15.55L19.66 16.48C19.68 16.5 19.7 16.51 19.73 16.51C19.75 16.51 19.77 16.5 19.79 16.49C21.04 15.43 22.13 14.19 23.01 12.81C23.16 12.57 23.25 12.28 23.24 11.99C23.24 11.7 23.16 11.42 23 11.18Z" fill="#000000" fill-opacity="1.000000" fill-rule="nonzero"/>
		<path id="Vector" d="M12 7.5C11.66 7.49 11.32 7.53 10.99 7.61C10.98 7.61 10.96 7.62 10.95 7.63C10.94 7.64 10.93 7.66 10.92 7.67C10.92 7.69 10.92 7.71 10.92 7.72C10.93 7.74 10.93 7.75 10.95 7.77L16.22 13.04C16.24 13.05 16.25 13.06 16.27 13.07C16.28 13.07 16.3 13.07 16.32 13.07C16.33 13.06 16.35 13.05 16.36 13.04C16.37 13.03 16.38 13.01 16.38 13C16.53 12.34 16.53 11.65 16.38 10.99C16.23 10.33 15.93 9.72 15.51 9.19C15.09 8.66 14.56 8.23 13.95 7.94C13.34 7.65 12.67 7.5 12 7.5ZM7.77 10.95C7.75 10.94 7.74 10.93 7.72 10.92C7.71 10.92 7.69 10.92 7.67 10.92C7.66 10.93 7.64 10.94 7.63 10.95C7.62 10.96 7.61 10.98 7.61 10.99C7.44 11.74 7.46 12.51 7.67 13.24C7.88 13.98 8.27 14.64 8.81 15.18C9.35 15.72 10.02 16.11 10.75 16.32C11.48 16.53 12.26 16.56 13 16.39C13.01 16.38 13.03 16.37 13.04 16.36C13.05 16.35 13.06 16.34 13.07 16.32C13.07 16.3 13.07 16.29 13.07 16.27C13.07 16.25 13.06 16.24 13.04 16.23L7.77 10.95Z" fill="#000000" fill-opacity="1.000000" fill-rule="nonzero"/>
	</g>
</svg>
