<svg width="24.000000" height="24.000000" viewBox="0 0 24 24" fill="none" xmlns="http://www.w3.org/2000/svg" xmlns:xlink="http://www.w3.org/1999/xlink">
	<desc>
			Created with Pixso.
	</desc>
	<defs>
		<clipPath id="clip29_308">
			<rect id="Property 1=ion:heart-circle-outline" rx="-0.500000" width="23.000000" height="23.000000" transform="translate(0.500000 0.500000)" fill="white" fill-opacity="0"/>
		</clipPath>
	</defs>
	<rect id="Property 1=ion:heart-circle-outline" rx="-0.500000" width="23.000000" height="23.000000" transform="translate(0.500000 0.500000)" fill="#FFFFFF" fill-opacity="0"/>
	<g clip-path="url(#clip29_308)">
		<path id="Vector" d="M12 3C7.03 3 3 7.03 3 12C3 16.96 7.03 21 12 21C16.96 21 21 16.96 21 12C21 7.03 16.96 3 12 3Z" stroke="#000000" stroke-opacity="1.000000" stroke-width="1.500000"/>
		<path id="Vector" d="M12 16.87C11.84 16.87 11.7 16.82 11.57 16.74C9.73 15.49 8.93 14.63 8.49 14.1C7.56 12.95 7.11 11.78 7.12 10.51C7.13 9.05 8.3 7.87 9.72 7.87C10.68 7.87 11.36 8.37 11.79 8.83C11.82 8.85 11.85 8.88 11.88 8.89C11.92 8.91 11.96 8.91 12 8.91C12.03 8.91 12.07 8.91 12.11 8.89C12.14 8.88 12.17 8.85 12.2 8.83C12.63 8.37 13.31 7.87 14.27 7.87C15.69 7.87 16.85 9.05 16.87 10.51C16.88 11.78 16.43 12.95 15.5 14.1C15.06 14.63 14.26 15.49 12.42 16.74C12.29 16.82 12.15 16.87 12 16.87Z" fill="#000000" fill-opacity="1.000000" fill-rule="nonzero"/>
	</g>
</svg>
