<svg width="24.000000" height="24.000000" viewBox="0 0 24 24" fill="none" xmlns="http://www.w3.org/2000/svg" xmlns:xlink="http://www.w3.org/1999/xlink">
	<desc>
			Created with Pixso.
	</desc>
	<defs>
		<clipPath id="clip29_284">
			<rect id="Property 1=ion:bicycle" rx="-0.500000" width="23.000000" height="23.000000" transform="translate(0.500000 0.500000)" fill="white" fill-opacity="0"/>
		</clipPath>
	</defs>
	<rect id="Property 1=ion:bicycle" rx="-0.500000" width="23.000000" height="23.000000" transform="translate(0.500000 0.500000)" fill="#FFFFFF" fill-opacity="0"/>
	<g clip-path="url(#clip29_284)">
		<path id="Vector" d="M18.18 21C17.33 21 16.5 20.74 15.79 20.27C15.08 19.79 14.52 19.12 14.2 18.33C13.87 17.54 13.79 16.68 13.95 15.84C14.12 15 14.53 14.24 15.13 13.63C15.74 13.03 16.5 12.62 17.34 12.45C18.18 12.29 19.04 12.37 19.83 12.7C20.62 13.02 21.29 13.58 21.77 14.29C22.24 15 22.5 15.83 22.5 16.68C22.49 17.83 22.04 18.92 21.23 19.73C20.42 20.54 19.33 20.99 18.18 21ZM18.18 13.87C17.63 13.87 17.08 14.04 16.62 14.34C16.16 14.65 15.8 15.09 15.58 15.61C15.37 16.12 15.32 16.69 15.42 17.23C15.53 17.78 15.8 18.28 16.19 18.67C16.59 19.06 17.09 19.33 17.63 19.44C18.18 19.55 18.75 19.49 19.26 19.28C19.77 19.07 20.21 18.71 20.52 18.25C20.83 17.78 21 17.24 21 16.68C20.99 15.94 20.7 15.22 20.17 14.69C19.64 14.17 18.93 13.87 18.18 13.87ZM5.81 21C4.95 21 4.12 20.74 3.41 20.27C2.7 19.79 2.15 19.12 1.82 18.33C1.5 17.54 1.41 16.68 1.58 15.84C1.74 15 2.16 14.24 2.76 13.63C3.36 13.03 4.13 12.62 4.97 12.45C5.8 12.29 6.67 12.37 7.46 12.7C8.25 13.02 8.92 13.58 9.39 14.29C9.87 15 10.12 15.83 10.12 16.68C10.12 17.83 9.66 18.92 8.86 19.73C8.05 20.54 6.95 20.99 5.81 21ZM5.81 13.87C5.25 13.87 4.71 14.04 4.25 14.34C3.78 14.65 3.42 15.09 3.21 15.61C3 16.12 2.94 16.69 3.05 17.23C3.16 17.78 3.43 18.28 3.82 18.67C4.21 19.06 4.71 19.33 5.26 19.44C5.8 19.55 6.37 19.49 6.88 19.28C7.4 19.07 7.84 18.71 8.15 18.25C8.45 17.78 8.62 17.24 8.62 16.68C8.62 15.94 8.32 15.22 7.79 14.69C7.27 14.17 6.55 13.87 5.81 13.87ZM15 6C15.19 6 15.39 5.96 15.57 5.88C15.75 5.81 15.92 5.7 16.06 5.56C16.2 5.42 16.31 5.25 16.38 5.07C16.46 4.88 16.5 4.69 16.5 4.49C16.5 4.29 16.46 4.1 16.39 3.92C16.31 3.73 16.2 3.57 16.06 3.43C15.92 3.29 15.76 3.18 15.58 3.11C15.4 3.03 15.2 2.99 15 3C14.81 2.99 14.61 3.03 14.43 3.11C14.25 3.18 14.08 3.29 13.94 3.43C13.8 3.57 13.69 3.73 13.62 3.92C13.54 4.1 13.5 4.29 13.5 4.49C13.5 4.69 13.54 4.88 13.61 5.06C13.69 5.25 13.8 5.41 13.94 5.55C14.07 5.69 14.24 5.8 14.42 5.88C14.6 5.96 14.8 5.99 15 6Z" fill="#000000" fill-opacity="1.000000" fill-rule="nonzero"/>
		<path id="Vector" d="M17.22 9L15.17 9C15.14 9 15.11 8.99 15.08 8.97C15.05 8.95 15.02 8.93 15.01 8.9L13.52 6.17C13.42 5.97 13.26 5.79 13.08 5.66C12.89 5.53 12.68 5.44 12.46 5.4C12.23 5.37 12 5.39 11.78 5.46C11.57 5.53 11.37 5.65 11.21 5.81L7.93 9.11C7.66 9.39 7.5 9.76 7.5 10.16C7.5 10.97 8.09 11.26 8.36 11.43C9.7 12.2 10.64 12.76 11.16 13.07C11.18 13.09 11.21 13.11 11.22 13.14C11.24 13.17 11.25 13.2 11.25 13.23L11.25 16.47C11.25 16.88 11.56 17.22 11.96 17.24C12.06 17.25 12.16 17.23 12.26 17.2C12.35 17.16 12.44 17.11 12.51 17.04C12.59 16.97 12.64 16.88 12.68 16.79C12.72 16.7 12.75 16.6 12.75 16.5L12.75 12.46C12.75 12.34 12.72 12.23 12.66 12.12C12.61 12.02 12.53 11.92 12.43 11.85L10.7 10.61C10.68 10.59 10.66 10.57 10.65 10.55C10.63 10.53 10.62 10.5 10.62 10.47C10.62 10.45 10.62 10.42 10.63 10.39C10.64 10.37 10.65 10.35 10.67 10.33L12.64 8.23C12.66 8.2 12.69 8.19 12.71 8.18C12.74 8.17 12.77 8.16 12.8 8.17C12.83 8.17 12.86 8.18 12.88 8.2C12.91 8.22 12.93 8.24 12.94 8.26L13.96 10.11C14.03 10.23 14.12 10.32 14.24 10.39C14.35 10.46 14.49 10.5 14.62 10.5L17.25 10.5C17.35 10.5 17.45 10.47 17.54 10.43C17.63 10.39 17.72 10.34 17.79 10.26C17.86 10.19 17.91 10.1 17.95 10.01C17.98 9.91 18 9.81 18 9.71C17.98 9.31 17.63 9 17.22 9Z" fill="#000000" fill-opacity="1.000000" fill-rule="nonzero"/>
	</g>
</svg>
