<svg width="14.625000" height="12.375000" viewBox="0 0 14.625 12.375" fill="none" xmlns="http://www.w3.org/2000/svg" xmlns:xlink="http://www.w3.org/1999/xlink">
	<desc>
			Created with Pixso.
	</desc>
	<defs/>
	<path id="Vector" d="M3.93 6.18C3.93 6.03 3.99 5.89 4.1 5.78C4.2 5.68 4.35 5.62 4.5 5.62L9.56 5.62L9.56 1.96C9.56 0.84 8.37 0 7.31 0L1.96 0C1.44 0 0.94 0.2 0.57 0.57C0.2 0.94 0 1.44 0 1.96L0 10.4C0 10.92 0.2 11.42 0.57 11.79C0.94 12.16 1.44 12.37 1.96 12.37L7.59 12.37C8.11 12.37 8.61 12.16 8.98 11.79C9.35 11.42 9.56 10.92 9.56 10.4L9.56 6.75L4.5 6.75C4.35 6.75 4.2 6.69 4.1 6.58C3.99 6.47 3.93 6.33 3.93 6.18ZM14.46 5.78L11.64 2.97C11.54 2.87 11.39 2.82 11.25 2.82C11.1 2.82 10.96 2.88 10.86 2.98C10.75 3.09 10.69 3.23 10.69 3.37C10.69 3.52 10.75 3.66 10.85 3.77L12.7 5.62L9.56 5.62L9.56 6.75L12.7 6.75L10.85 8.6C10.79 8.65 10.75 8.71 10.72 8.78C10.69 8.85 10.67 8.92 10.67 9C10.67 9.07 10.69 9.15 10.71 9.22C10.74 9.29 10.78 9.35 10.84 9.4C10.89 9.46 10.95 9.5 11.02 9.53C11.09 9.55 11.17 9.57 11.24 9.57C11.32 9.57 11.39 9.55 11.46 9.52C11.53 9.49 11.59 9.45 11.64 9.39L14.46 6.58C14.56 6.47 14.62 6.33 14.62 6.18C14.62 6.03 14.56 5.89 14.46 5.78Z" fill="#000000" fill-opacity="1.000000" fill-rule="nonzero"/>
</svg>
