<svg width="13.999512" height="13.999298" viewBox="0 0 13.9995 13.9993" fill="none" xmlns="http://www.w3.org/2000/svg" xmlns:xlink="http://www.w3.org/1999/xlink">
	<desc>
			Created with Pixso.
	</desc>
	<defs/>
	<path id="Vector" d="M13.78 0.21C13.67 0.11 13.54 0.04 13.4 0.01C13.26 -0.02 13.11 -0.01 12.98 0.04L0.48 4.78L0.48 4.78C0.33 4.83 0.21 4.93 0.12 5.06C0.04 5.19 -0.01 5.34 0 5.49C0 5.65 0.05 5.8 0.14 5.92C0.23 6.04 0.36 6.14 0.51 6.19L0.52 6.19L4.81 8.02C4.89 8.05 4.98 8.05 5.07 8.03C5.15 8.01 5.23 7.97 5.3 7.91L12.18 1.49C12.2 1.47 12.23 1.46 12.25 1.45C12.28 1.44 12.31 1.43 12.34 1.43C12.37 1.43 12.4 1.44 12.42 1.45C12.45 1.46 12.47 1.47 12.5 1.49C12.52 1.51 12.53 1.54 12.54 1.57C12.55 1.59 12.56 1.62 12.56 1.65C12.56 1.68 12.55 1.71 12.54 1.74C12.53 1.76 12.52 1.79 12.5 1.81L6.08 8.69C6.02 8.75 5.98 8.83 5.96 8.92C5.94 9 5.94 9.09 5.97 9.18L7.8 13.47C7.8 13.47 7.8 13.48 7.8 13.49C7.9 13.78 8.16 13.98 8.46 13.99L8.5 13.99C8.65 14 8.8 13.95 8.93 13.86C9.06 13.78 9.16 13.65 9.21 13.51L13.94 1.01C14 0.88 14.01 0.73 13.98 0.59C13.95 0.45 13.88 0.32 13.78 0.21Z" fill="#000000" fill-opacity="1.000000" fill-rule="nonzero"/>
	<path id="Vector" d="M7.8 13.47C7.8 13.47 7.8 13.48 7.8 13.49C7.9 13.78 8.16 13.98 8.46 13.99L8.5 13.99C8.65 14 8.8 13.95 8.93 13.86C9.06 13.78 9.16 13.65 9.21 13.51L13.94 1.01C14 0.88 14.01 0.73 13.98 0.59C13.95 0.45 13.88 0.32 13.78 0.21C13.67 0.11 13.54 0.04 13.4 0.01C13.26 -0.02 13.11 -0.01 12.98 0.04L0.48 4.78L0.48 4.78C0.33 4.83 0.21 4.93 0.12 5.06C0.04 5.19 -0.01 5.34 0 5.49C0 5.65 0.05 5.8 0.14 5.92C0.23 6.04 0.36 6.14 0.51 6.19L0.52 6.19L4.81 8.02C4.89 8.05 4.98 8.05 5.07 8.03C5.15 8.01 5.23 7.97 5.3 7.91L12.18 1.49C12.2 1.47 12.23 1.46 12.25 1.45C12.28 1.44 12.31 1.43 12.34 1.43C12.37 1.43 12.4 1.44 12.42 1.45C12.45 1.46 12.47 1.47 12.5 1.49C12.52 1.51 12.53 1.54 12.54 1.57C12.55 1.59 12.56 1.62 12.56 1.65C12.56 1.68 12.55 1.71 12.54 1.74C12.53 1.76 12.52 1.79 12.5 1.81L6.08 8.69C6.02 8.75 5.98 8.83 5.96 8.92C5.94 9 5.94 9.09 5.97 9.18L7.8 13.47ZM6.01 9.16L7.84 13.45L7.84 13.46Q7.85 13.46 7.85 13.47Q7.89 13.6 7.98 13.7Q8.03 13.76 8.09 13.81Q8.17 13.87 8.27 13.91Q8.36 13.94 8.46 13.95L8.5 13.95Q8.61 13.95 8.71 13.92Q8.81 13.89 8.9 13.82Q9 13.76 9.06 13.68Q9.13 13.6 9.17 13.49L13.9 1Q13.94 0.9 13.95 0.8Q13.95 0.7 13.93 0.6Q13.91 0.5 13.86 0.41Q13.82 0.32 13.74 0.25Q13.67 0.17 13.58 0.13Q13.5 0.08 13.39 0.06Q13.29 0.04 13.19 0.04Q13.09 0.05 13 0.09L0.49 4.82L0.48 4.82Q0.39 4.86 0.31 4.93Q0.22 4.99 0.16 5.08Q0.1 5.18 0.07 5.28Q0.04 5.38 0.04 5.49Q0.04 5.6 0.08 5.7Q0.11 5.8 0.18 5.89Q0.25 5.98 0.33 6.04Q0.42 6.11 0.52 6.14L0.54 6.15L4.83 7.98Q4.88 8 4.94 8Q5 8 5.06 7.99Q5.12 7.97 5.17 7.95Q5.22 7.92 5.26 7.88L12.15 1.46Q12.17 1.44 12.19 1.43Q12.21 1.41 12.24 1.4Q12.26 1.39 12.29 1.39Q12.31 1.38 12.34 1.38Q12.37 1.38 12.39 1.39Q12.42 1.39 12.44 1.4Q12.47 1.41 12.49 1.43Q12.51 1.44 12.53 1.46Q12.55 1.48 12.56 1.5Q12.58 1.52 12.59 1.55Q12.6 1.57 12.6 1.6Q12.61 1.62 12.61 1.65Q12.61 1.68 12.6 1.7Q12.6 1.73 12.59 1.75Q12.58 1.78 12.56 1.8Q12.55 1.82 12.53 1.84L6.11 8.72Q6.07 8.77 6.04 8.82Q6.02 8.87 6 8.93Q5.99 8.99 5.99 9.05Q5.99 9.1 6.01 9.16Z" fill="#112211" fill-opacity="1.000000" fill-rule="evenodd"/>
</svg>
