<svg width="15.750000" height="16.171875" viewBox="0 0 15.75 16.1719" fill="none" xmlns="http://www.w3.org/2000/svg" xmlns:xlink="http://www.w3.org/1999/xlink">
	<desc>
			Created with Pixso.
	</desc>
	<defs/>
	<path id="Vector" d="M15.41 9.63L15.39 9.61L14.28 8.74C14.21 8.69 14.16 8.62 14.12 8.54C14.08 8.45 14.06 8.37 14.07 8.28L14.07 7.87C14.06 7.78 14.08 7.69 14.12 7.61C14.16 7.53 14.21 7.46 14.28 7.4L15.39 6.53L15.41 6.52C15.58 6.38 15.69 6.18 15.73 5.96C15.77 5.74 15.73 5.52 15.61 5.32L14.11 2.73C14.11 2.72 14.11 2.72 14.11 2.72C14 2.53 13.82 2.39 13.61 2.31C13.4 2.24 13.17 2.24 12.97 2.32L12.96 2.32L11.65 2.85C11.57 2.88 11.48 2.9 11.39 2.89C11.3 2.88 11.22 2.85 11.14 2.8C11.03 2.73 10.91 2.66 10.79 2.6C10.71 2.56 10.65 2.5 10.6 2.42C10.55 2.35 10.51 2.27 10.5 2.18L10.31 0.79L10.3 0.77C10.26 0.55 10.14 0.36 9.97 0.22C9.81 0.08 9.59 0 9.37 0L6.37 0C6.14 0 5.93 0.08 5.76 0.22C5.59 0.36 5.47 0.56 5.44 0.78L5.43 0.8L5.24 2.2C5.23 2.28 5.19 2.37 5.14 2.44C5.09 2.51 5.03 2.57 4.95 2.61C4.83 2.68 4.72 2.74 4.6 2.82C4.53 2.86 4.44 2.89 4.35 2.9C4.26 2.91 4.18 2.89 4.09 2.86L2.79 2.33L2.78 2.33C2.57 2.25 2.34 2.25 2.13 2.32C1.92 2.39 1.75 2.54 1.63 2.73L1.63 2.74L0.13 5.34C0.01 5.53 -0.03 5.75 0.01 5.97C0.05 6.19 0.16 6.39 0.33 6.53L0.35 6.55L1.46 7.42C1.53 7.47 1.58 7.54 1.62 7.63C1.66 7.71 1.68 7.8 1.67 7.89L1.67 8.29C1.68 8.38 1.66 8.47 1.62 8.55C1.58 8.63 1.53 8.7 1.46 8.76L0.35 9.63L0.33 9.64C0.16 9.78 0.05 9.98 0.01 10.2C-0.03 10.42 0.01 10.65 0.13 10.84L1.63 13.44C1.63 13.44 1.63 13.44 1.63 13.44C1.75 13.63 1.92 13.78 2.13 13.85C2.34 13.92 2.57 13.92 2.77 13.84L2.79 13.84L4.09 13.31C4.17 13.28 4.26 13.27 4.35 13.27C4.44 13.28 4.52 13.31 4.6 13.36C4.71 13.43 4.83 13.5 4.95 13.56C5.03 13.61 5.09 13.66 5.14 13.74C5.19 13.81 5.22 13.89 5.24 13.98L5.43 15.37L5.44 15.4C5.48 15.61 5.59 15.81 5.76 15.95C5.93 16.09 6.15 16.17 6.37 16.17L9.37 16.17C9.6 16.17 9.81 16.09 9.98 15.94C10.15 15.8 10.27 15.6 10.3 15.38L10.31 15.36L10.5 13.97C10.51 13.88 10.55 13.8 10.6 13.72C10.65 13.65 10.71 13.59 10.79 13.55C10.91 13.49 11.03 13.42 11.14 13.35C11.22 13.3 11.3 13.27 11.39 13.26C11.48 13.25 11.57 13.27 11.65 13.3L12.95 13.83L12.97 13.83C13.17 13.91 13.4 13.91 13.61 13.84C13.82 13.77 14 13.62 14.11 13.43C14.11 13.43 14.11 13.43 14.11 13.42L15.61 10.83C15.73 10.64 15.77 10.41 15.73 10.19C15.69 9.97 15.58 9.77 15.41 9.63ZM10.68 8.21C10.65 8.76 10.47 9.28 10.15 9.73C9.83 10.17 9.39 10.51 8.88 10.7C8.38 10.9 7.82 10.95 7.29 10.83C6.76 10.72 6.27 10.46 5.88 10.07C5.5 9.68 5.23 9.2 5.12 8.66C5.01 8.13 5.05 7.57 5.25 7.07C5.44 6.56 5.78 6.12 6.23 5.8C6.67 5.48 7.19 5.3 7.74 5.27C8.13 5.25 8.52 5.32 8.88 5.46C9.25 5.6 9.58 5.82 9.86 6.09C10.13 6.37 10.35 6.7 10.49 7.07C10.63 7.43 10.7 7.82 10.68 8.21Z" fill="#000000" fill-opacity="1.000000" fill-rule="nonzero"/>
</svg>
