<svg width="22.498535" height="21.002930" viewBox="0 0 22.4985 21.0029" fill="none" xmlns="http://www.w3.org/2000/svg" xmlns:xlink="http://www.w3.org/1999/xlink">
	<desc>
			Created with Pixso.
	</desc>
	<defs/>
	<path id="Vector" d="M17.71 21C17.55 21 17.4 20.95 17.27 20.86L11.24 16.48L5.21 20.86C5.09 20.95 4.93 21 4.77 21C4.61 21 4.46 20.95 4.33 20.85C4.2 20.76 4.11 20.62 4.06 20.47C4.01 20.32 4.01 20.16 4.06 20.01L6.41 13.04L0.32 8.86C0.19 8.77 0.09 8.64 0.04 8.49C-0.02 8.34 -0.02 8.18 0.03 8.02C0.08 7.87 0.17 7.74 0.3 7.64C0.43 7.55 0.58 7.5 0.74 7.5L8.26 7.5L10.53 0.51C10.58 0.36 10.67 0.23 10.8 0.14C10.93 0.05 11.08 0 11.24 0C11.4 0 11.56 0.05 11.68 0.14C11.81 0.23 11.91 0.36 11.96 0.51L14.23 7.5L21.74 7.5C21.9 7.5 22.06 7.55 22.19 7.64C22.32 7.74 22.41 7.87 22.46 8.03C22.51 8.18 22.5 8.34 22.45 8.49C22.4 8.65 22.3 8.78 22.17 8.87L16.07 13.04L18.42 20.01C18.46 20.12 18.47 20.24 18.45 20.36C18.43 20.47 18.39 20.59 18.32 20.68C18.25 20.78 18.16 20.86 18.05 20.91C17.95 20.97 17.83 21 17.71 21Z" fill="#FFC107" fill-opacity="1.000000" fill-rule="nonzero"/>
</svg>
