<svg width="24.000000" height="24.000000" viewBox="0 0 24 24" fill="none" xmlns="http://www.w3.org/2000/svg" xmlns:xlink="http://www.w3.org/1999/xlink">
	<desc>
			Created with Pixso.
	</desc>
	<defs>
		<clipPath id="clip29_542">
			<rect id="Filled=False" rx="-0.500000" width="23.000000" height="23.000000" transform="translate(0.500000 0.500000)" fill="white" fill-opacity="0"/>
		</clipPath>
	</defs>
	<rect id="Filled=False" rx="-0.500000" width="23.000000" height="23.000000" transform="translate(0.500000 0.500000)" fill="#FFFFFF" fill-opacity="0"/>
	<g clip-path="url(#clip29_542)">
		<path id="Vector" d="M18.23 8.58C17.41 7.34 16.24 6.38 14.87 5.82C13.5 5.25 11.99 5.1 10.54 5.39C9.08 5.68 7.74 6.39 6.69 7.44C5.65 8.49 4.93 9.83 4.64 11.28C4.35 12.74 4.5 14.24 5.07 15.62C5.64 16.99 6.6 18.16 7.83 18.98C9.06 19.81 10.51 20.25 12 20.25C13.99 20.25 15.89 19.45 17.3 18.05C18.71 16.64 19.5 14.73 19.5 12.75C19.5 11.26 19.06 9.81 18.23 8.58ZM5.25 3.75L5.11 3.75C3.92 3.82 3 4.87 3 6.14C3 6.75 3.22 7.04 3.51 7.41C3.53 7.44 3.55 7.46 3.58 7.47C3.6 7.48 3.63 7.49 3.66 7.5L3.7 7.5C3.72 7.49 3.75 7.49 3.77 7.48C3.79 7.47 3.81 7.45 3.82 7.43L6.67 4.64C6.69 4.61 6.71 4.58 6.72 4.55C6.74 4.52 6.74 4.48 6.74 4.45C6.74 4.41 6.73 4.38 6.72 4.35C6.7 4.32 6.68 4.29 6.66 4.27C6.26 3.93 5.76 3.75 5.25 3.75ZM18.75 3.75L18.88 3.75C20.07 3.82 21 4.87 20.99 6.14C20.99 6.75 20.77 7.04 20.48 7.41C20.46 7.44 20.44 7.46 20.41 7.47C20.39 7.48 20.36 7.49 20.33 7.49L20.29 7.49C20.27 7.49 20.24 7.49 20.22 7.48C20.2 7.47 20.18 7.45 20.17 7.43L17.32 4.64C17.3 4.61 17.28 4.58 17.26 4.55C17.25 4.52 17.25 4.48 17.25 4.45C17.25 4.41 17.26 4.38 17.27 4.35C17.29 4.32 17.31 4.29 17.33 4.27C17.73 3.93 18.23 3.75 18.75 3.75Z" stroke="#000000" stroke-opacity="1.000000" stroke-width="1.500000"/>
		<path id="Vector" d="M12 7.5L12 12.75L8.25 12.75M19.5 20.25L17.62 18.37M4.5 20.25L6.37 18.37" stroke="#000000" stroke-opacity="1.000000" stroke-width="1.500000" stroke-linejoin="round"/>
	</g>
</svg>
