<svg width="14.000000" height="14.000000" viewBox="0 0 14 14" fill="none" xmlns="http://www.w3.org/2000/svg" xmlns:xlink="http://www.w3.org/1999/xlink">
	<desc>
			Created with Pixso.
	</desc>
	<defs>
		<clipPath id="clip33_327">
			<rect id="Arrow Down" rx="-0.500000" width="13.000000" height="13.000000" transform="translate(0.500000 14.500000) rotate(-90.000000)" fill="white" fill-opacity="0"/>
		</clipPath>
	</defs>
	<rect id="Arrow Down" rx="-0.500000" width="13.000000" height="13.000000" transform="translate(0.500000 14.500000) rotate(-90.000000)" fill="#FFFFFF" fill-opacity="0"/>
	<g clip-path="url(#clip33_327)">
		<path id="Vector" d="M1.31 7C1.31 10.14 3.85 12.68 7 12.68C10.14 12.68 12.68 10.14 12.68 7C12.68 3.85 10.14 1.31 7 1.31C3.85 1.31 1.31 3.85 1.31 7ZM9.31 6.03C9.35 5.99 9.4 5.95 9.45 5.93C9.51 5.91 9.56 5.89 9.62 5.89C9.68 5.89 9.74 5.9 9.79 5.93C9.85 5.95 9.9 5.98 9.94 6.02C9.98 6.06 10.01 6.11 10.03 6.17C10.06 6.22 10.07 6.28 10.07 6.34C10.06 6.39 10.05 6.45 10.03 6.51C10.01 6.56 9.97 6.61 9.93 6.65L7.3 9.27C7.22 9.35 7.11 9.4 7 9.4C6.88 9.4 6.77 9.35 6.69 9.27L4.06 6.65C3.98 6.57 3.94 6.46 3.94 6.34C3.94 6.23 3.99 6.12 4.07 6.04C4.15 5.96 4.26 5.91 4.37 5.91C4.49 5.91 4.6 5.95 4.68 6.03L7 8.34L9.31 6.03Z" fill="#FF8682" fill-opacity="1.000000" fill-rule="nonzero"/>
	</g>
</svg>
