<svg width="21.000000" height="16.500000" viewBox="0 0 21 16.5" fill="none" xmlns="http://www.w3.org/2000/svg" xmlns:xlink="http://www.w3.org/1999/xlink">
	<desc>
			Created with Pixso.
	</desc>
	<defs/>
	<path id="Vector" d="M18.75 7.06C18.27 6.85 17.76 6.74 17.25 6.75L3.75 6.75C3.23 6.74 2.72 6.85 2.25 7.06C1.58 7.35 1.01 7.83 0.61 8.44C0.21 9.05 0 9.77 0 10.5L0 15.75C0 15.94 0.07 16.13 0.21 16.28C0.36 16.42 0.55 16.5 0.75 16.5C0.94 16.5 1.13 16.42 1.28 16.28C1.42 16.13 1.5 15.94 1.5 15.75L1.5 15.37C1.5 15.27 1.54 15.18 1.61 15.11C1.68 15.04 1.77 15 1.87 15L19.12 15C19.22 15 19.31 15.04 19.38 15.11C19.45 15.18 19.49 15.27 19.5 15.37L19.5 15.75C19.5 15.94 19.57 16.13 19.71 16.28C19.86 16.42 20.05 16.5 20.25 16.5C20.44 16.5 20.63 16.42 20.78 16.28C20.92 16.13 21 15.94 21 15.75L21 10.5C20.99 9.77 20.78 9.05 20.38 8.44C19.98 7.83 19.41 7.35 18.75 7.06ZM16.12 0L4.87 0C4.17 0 3.51 0.27 3.01 0.76C2.52 1.26 2.25 1.92 2.25 2.62L2.25 6C2.25 6.02 2.25 6.05 2.26 6.08C2.28 6.1 2.3 6.13 2.32 6.14C2.34 6.16 2.37 6.17 2.4 6.18C2.43 6.18 2.46 6.18 2.48 6.17C2.89 6.06 3.32 5.99 3.75 6L3.94 6C3.99 6 4.03 5.98 4.07 5.95C4.1 5.92 4.13 5.87 4.13 5.83C4.17 5.46 4.35 5.12 4.62 4.88C4.9 4.63 5.25 4.5 5.62 4.5L8.25 4.5C8.61 4.5 8.97 4.63 9.25 4.88C9.52 5.12 9.69 5.46 9.74 5.83C9.74 5.87 9.76 5.92 9.8 5.95C9.83 5.98 9.88 6 9.92 6L11.07 6C11.12 6 11.16 5.98 11.2 5.95C11.23 5.92 11.25 5.87 11.26 5.83C11.3 5.46 11.47 5.12 11.75 4.88C12.02 4.63 12.38 4.5 12.75 4.5L15.37 4.5C15.74 4.5 16.09 4.63 16.37 4.88C16.65 5.12 16.82 5.46 16.86 5.83C16.87 5.87 16.89 5.92 16.92 5.95C16.96 5.98 17 6 17.05 6L17.25 6C17.67 5.99 18.1 6.06 18.51 6.18C18.53 6.18 18.56 6.19 18.59 6.18C18.62 6.17 18.65 6.16 18.67 6.15C18.69 6.13 18.71 6.1 18.73 6.08C18.74 6.05 18.75 6.02 18.75 6L18.75 2.62C18.75 1.92 18.47 1.26 17.98 0.76C17.48 0.27 16.82 0 16.12 0Z" fill="#112211" fill-opacity="1.000000" fill-rule="nonzero"/>
</svg>
