<svg width="24.000000" height="24.000000" viewBox="0 0 24 24" fill="none" xmlns="http://www.w3.org/2000/svg" xmlns:xlink="http://www.w3.org/1999/xlink">
	<desc>
			Created with Pixso.
	</desc>
	<defs>
		<clipPath id="clip29_673">
			<rect id="Fill=False" rx="-0.500000" width="23.000000" height="23.000000" transform="translate(0.500000 0.500000)" fill="white" fill-opacity="0"/>
		</clipPath>
	</defs>
	<rect id="Fill=False" rx="-0.500000" width="23.000000" height="23.000000" transform="translate(0.500000 0.500000)" fill="#FFFFFF" fill-opacity="0"/>
	<g clip-path="url(#clip29_673)">
		<path id="Vector" d="M20.35 14.45C20.38 14.4 20.41 14.35 20.45 14.31C21.29 13.05 21.74 11.58 21.75 10.07C21.76 5.75 18.11 2.25 13.6 2.25C9.67 2.25 6.39 4.92 5.62 8.47C5.5 9 5.45 9.54 5.45 10.08C5.45 14.4 8.95 18 13.46 18C14.18 18 15.14 17.79 15.67 17.64C16.2 17.5 16.73 17.31 16.87 17.25C17 17.2 17.15 17.17 17.3 17.17C17.46 17.17 17.62 17.21 17.77 17.27L20.43 18.21C20.49 18.24 20.55 18.25 20.62 18.26C20.71 18.26 20.81 18.22 20.88 18.15C20.95 18.08 20.99 17.98 20.99 17.88C20.99 17.84 20.98 17.8 20.97 17.76L20.2 15.02C20.15 14.85 20.25 14.62 20.35 14.45Z" stroke="#000000" stroke-opacity="1.000000" stroke-width="1.500000"/>
		<path id="Vector" d="M3.11 10.87C2.5 11.97 2.2 13.23 2.25 14.49C2.3 15.75 2.7 16.98 3.41 18.03C3.52 18.19 3.58 18.32 3.56 18.4C3.54 18.49 3 21.3 3 21.3C2.99 21.37 2.99 21.44 3.02 21.5C3.04 21.56 3.08 21.62 3.13 21.66C3.2 21.72 3.28 21.75 3.37 21.75C3.42 21.75 3.46 21.74 3.51 21.72L6.14 20.69C6.32 20.61 6.53 20.62 6.7 20.7C7.59 21.04 8.57 21.26 9.56 21.26C10.87 21.26 12.17 20.91 13.31 20.25" stroke="#000000" stroke-opacity="1.000000" stroke-width="1.500000" stroke-linecap="round"/>
	</g>
</svg>
