<svg width="24.000000" height="24.000000" viewBox="0 0 24 24" fill="none" xmlns="http://www.w3.org/2000/svg" xmlns:xlink="http://www.w3.org/1999/xlink">
	<desc>
			Created with Pixso.
	</desc>
	<defs>
		<clipPath id="clip29_646">
			<rect id="Fill=False" rx="-0.500000" width="23.000000" height="23.000000" transform="translate(0.500000 0.500000)" fill="white" fill-opacity="0"/>
		</clipPath>
	</defs>
	<rect id="Fill=False" rx="-0.500000" width="23.000000" height="23.000000" transform="translate(0.500000 0.500000)" fill="#FFFFFF" fill-opacity="0"/>
	<g clip-path="url(#clip29_646)">
		<path id="Vector" d="M1.63 11.59C1.54 11.71 1.5 11.85 1.5 12C1.49 12.15 1.54 12.3 1.62 12.42C3.88 15.97 7.58 18.75 11.98 18.75C16.33 18.75 20.1 15.96 22.38 12.41C22.45 12.28 22.5 12.14 22.5 12C22.5 11.85 22.45 11.71 22.38 11.59C20.1 8.07 16.3 5.25 11.98 5.25C8.33 5.25 4.58 7.36 1.63 11.59Z" stroke="#000000" stroke-opacity="1.000000" stroke-width="1.500000" stroke-linejoin="round"/>
		<path id="Vector" d="M12 15.75C9.92 15.75 8.25 14.07 8.25 12C8.25 9.92 9.92 8.25 12 8.25C14.07 8.25 15.75 9.92 15.75 12C15.75 14.07 14.07 15.75 12 15.75Z" stroke="#000000" stroke-opacity="1.000000" stroke-width="1.500000"/>
	</g>
</svg>
