<svg width="108.000000" height="64.000000" viewBox="0 0 108 64" fill="none" xmlns="http://www.w3.org/2000/svg" xmlns:xlink="http://www.w3.org/1999/xlink">
	<desc>
			Created with Pixso.
	</desc>
	<defs>
		<clipPath id="clip29_362">
			<rect id="Filled=True" rx="-0.500000" width="23.000000" height="23.000000" transform="translate(20.500000 20.500000)" fill="white" fill-opacity="0"/>
		</clipPath>
		<clipPath id="clip29_365">
			<rect id="Filled=Filled" rx="-0.500000" width="23.000000" height="23.000000" transform="translate(64.500000 20.500000)" fill="white" fill-opacity="0"/>
		</clipPath>
		<clipPath id="clip29_361">
			<rect id="file_tray_full" rx="4.500000" width="107.000000" height="63.000000" transform="translate(0.500000 0.500000)" fill="white" fill-opacity="0"/>
		</clipPath>
	</defs>
	<g clip-path="url(#clip29_361)">
		<rect id="Filled=True" rx="-0.500000" width="23.000000" height="23.000000" transform="translate(20.500000 20.500000)" fill="#FFFFFF" fill-opacity="0"/>
		<g clip-path="url(#clip29_362)">
			<path id="Vector" d="M42.48 32.59L40.98 25.47C40.69 23.92 39.57 23 38 23L26 23C25.21 23 24.54 23.21 24.02 23.65C23.5 24.08 23.16 24.69 23.01 25.47L21.51 32.59C21.5 32.64 21.5 32.69 21.5 32.75L21.5 38C21.5 38.79 21.81 39.55 22.37 40.12C22.94 40.68 23.7 41 24.5 41L39.5 41C40.29 41 41.05 40.68 41.62 40.12C42.18 39.55 42.5 38.79 42.5 38L42.5 32.75C42.5 32.69 42.49 32.64 42.48 32.59ZM24.48 25.77L24.48 25.76C24.65 24.9 25.13 24.5 25.99 24.5L38 24.5C38.87 24.5 39.35 24.9 39.51 25.76C39.51 25.76 39.51 25.77 39.51 25.78L40.77 31.77C40.78 31.8 40.78 31.83 40.77 31.85C40.77 31.88 40.75 31.91 40.74 31.93C40.72 31.95 40.7 31.97 40.67 31.98C40.65 31.99 40.62 32 40.59 32L35 32C34.8 32 34.61 32.07 34.47 32.21C34.33 32.35 34.25 32.54 34.25 32.74C34.25 33.33 34.01 33.91 33.59 34.33C33.16 34.75 32.59 34.99 32 34.99C31.4 34.99 30.83 34.75 30.4 34.33C29.98 33.91 29.75 33.33 29.75 32.74C29.75 32.64 29.72 32.54 29.69 32.45C29.65 32.36 29.59 32.28 29.52 32.21C29.45 32.14 29.37 32.09 29.28 32.05C29.19 32.01 29.09 31.99 29 32L23.4 32C23.37 32 23.34 31.99 23.32 31.98C23.29 31.96 23.27 31.95 23.25 31.93C23.24 31.9 23.22 31.88 23.22 31.85C23.21 31.82 23.21 31.8 23.22 31.77L24.48 25.77Z" fill="#000000" fill-opacity="1.000000" fill-rule="nonzero"/>
			<path id="Vector" d="M37.25 27.5L26.75 27.5C26.55 27.5 26.36 27.42 26.21 27.28C26.07 27.13 26 26.94 26 26.75C26 26.55 26.07 26.36 26.21 26.21C26.36 26.07 26.55 26 26.75 26L37.25 26C37.44 26 37.63 26.07 37.78 26.21C37.92 26.36 38 26.55 38 26.75C38 26.94 37.92 27.13 37.78 27.28C37.63 27.42 37.44 27.5 37.25 27.5ZM38 30.5L26 30.5C25.8 30.5 25.61 30.42 25.46 30.28C25.32 30.13 25.25 29.94 25.25 29.75C25.25 29.55 25.32 29.36 25.46 29.21C25.61 29.07 25.8 29 26 29L38 29C38.19 29 38.38 29.07 38.53 29.21C38.67 29.36 38.75 29.55 38.75 29.75C38.75 29.94 38.67 30.13 38.53 30.28C38.38 30.42 38.19 30.5 38 30.5Z" fill="#000000" fill-opacity="1.000000" fill-rule="nonzero"/>
		</g>
		<rect id="Filled=Filled" rx="-0.500000" width="23.000000" height="23.000000" transform="translate(64.500000 20.500000)" fill="#FFFFFF" fill-opacity="0"/>
		<g clip-path="url(#clip29_365)">
			<path id="Vector" d="M70 23.75C68.78 23.75 67.98 24.4 67.75 25.62L66.25 32.75L66.25 38C66.25 38.59 66.48 39.16 66.91 39.58C67.33 40.01 67.9 40.24 68.5 40.25L83.5 40.25C84.09 40.24 84.66 40.01 85.08 39.58C85.51 39.16 85.74 38.59 85.75 38L85.75 32.75L84.25 25.62C84.01 24.35 83.17 23.75 82 23.75L70 23.75Z" stroke="#000000" stroke-opacity="1.000000" stroke-width="1.500000" stroke-linejoin="round"/>
			<path id="Vector" d="M66.25 32.75L73 32.75C73 33.54 73.31 34.3 73.87 34.87C74.44 35.43 75.2 35.75 76 35.75C76.79 35.75 77.55 35.43 78.12 34.87C78.68 34.3 79 33.54 79 32.75L85.75 32.75M70.75 26.75L81.25 26.75M70 29.75L82 29.75" stroke="#000000" stroke-opacity="1.000000" stroke-width="1.500000" stroke-linejoin="round"/>
		</g>
	</g>
	<rect id="file_tray_full" rx="4.500000" width="107.000000" height="63.000000" transform="translate(0.500000 0.500000)" stroke="#9747FF" stroke-opacity="1.000000" stroke-width="1.000000" stroke-dasharray="5 5"/>
</svg>
