<svg width="19.500977" height="18.000031" viewBox="0 0 19.501 18" fill="none" xmlns="http://www.w3.org/2000/svg" xmlns:xlink="http://www.w3.org/1999/xlink">
	<desc>
			Created with Pixso.
	</desc>
	<defs/>
	<path id="Vector" d="M9.75 18C9.44 17.99 9.15 17.9 8.9 17.73C5.22 15.23 3.62 13.52 2.74 12.45C0.87 10.16 -0.03 7.82 0 5.27C0.03 2.36 2.36 0 5.2 0C7.27 0 8.7 1.16 9.53 2.13C9.56 2.16 9.59 2.18 9.63 2.2C9.67 2.22 9.7 2.23 9.75 2.23C9.79 2.23 9.83 2.22 9.86 2.2C9.9 2.18 9.93 2.16 9.96 2.13C10.79 1.16 12.22 0 14.29 0C17.13 0 19.47 2.36 19.5 5.28C19.52 7.82 18.62 10.16 16.75 12.45C15.87 13.52 14.27 15.23 10.59 17.73C10.34 17.9 10.05 17.99 9.75 18Z" fill="#112211" fill-opacity="1.000000" fill-rule="nonzero"/>
</svg>
