<svg width="110.356445" height="36.000031" viewBox="0 0 110.356 36" fill="none" xmlns="http://www.w3.org/2000/svg" xmlns:xlink="http://www.w3.org/1999/xlink">
	<desc>
			Created with Pixso.
	</desc>
	<defs/>
	<path id="Vector" d="M14.72 5.57L17.94 8L15.98 10.5C17.33 12.04 17.83 13.79 17.83 15.72C17.83 17.9 17.01 20.98 14.11 22.3C17.05 23.77 17.76 25.88 17.76 28.13C17.76 32.99 14.04 36 8.93 36C3.82 36 0 32.88 0 28.13L4.32 28.13C4.32 30.42 6.43 31.92 8.93 31.92C11.43 31.92 13.4 30.56 13.4 28.13C13.4 25.7 11.11 24.59 8.93 24.59C3.43 24.59 0 21.23 0 15.72C0 10.22 4 6.79 8.93 6.79C10.33 6.79 11.76 6.96 12.97 7.79L14.72 5.57ZM4.32 15.72C4.32 18.8 6.39 20.62 8.93 20.62C11.43 20.62 13.51 18.76 13.51 15.72C13.51 12.68 11.43 10.76 8.93 10.76C6.39 10.76 4.32 12.65 4.32 15.72Z" fill="#112211" fill-opacity="1.000000" fill-rule="nonzero"/>
	<path id="Vector" d="M50.56 0L50.56 24.99L46.24 24.99L46.24 0L50.56 0Z" fill="#112211" fill-opacity="1.000000" fill-rule="nonzero"/>
	<path id="Vector" d="M69.99 16.19C69.99 21.27 66.53 25.38 60.81 25.38C55.09 25.38 51.66 21.27 51.66 16.19C51.66 11.15 55.16 7 60.77 7C66.39 7 69.99 11.15 69.99 16.19ZM56.01 16.19C56.01 18.87 57.62 21.37 60.8 21.37C63.98 21.37 65.59 18.87 65.59 16.19C65.59 13.54 63.74 10.97 60.8 10.97C57.66 10.97 56.01 13.54 56.01 16.19Z" fill="#112211" fill-opacity="1.000000" fill-rule="nonzero"/>
	<path id="Vector" d="M75.45 0L75.45 9.76C76.48 7.93 79.38 6.93 81.24 6.93C86.38 6.93 90.21 10.08 90.21 16.15C90.21 21.94 86.31 25.38 81.13 25.38C78.99 25.38 76.81 24.66 75.45 22.55L75.16 24.99L71.08 24.99L71.08 0L75.45 0ZM75.73 16.15C75.73 19.34 78.09 21.34 80.84 21.34C83.63 21.34 85.85 19.23 85.85 16.15C85.85 12.97 83.63 11.01 80.84 11.01C78.09 11.01 75.73 13.08 75.73 16.15Z" fill="#112211" fill-opacity="1.000000" fill-rule="nonzero"/>
	<path id="Vector" d="M96.69 19.23C97.71 21.18 100.03 22.01 102.92 20.96C104.43 20.41 106.2 19.12 106.79 17.8L110.35 19.43C109.27 21.88 106.73 23.79 104.21 24.71C98.5 26.79 93.82 24.5 91.89 19.19C90.05 14.15 92.16 9.27 97.53 7.32C103.08 5.3 107.79 7.47 109.63 14.52L96.69 19.23ZM104.46 12.56C103.41 10.5 101.34 10.04 98.99 10.9C96.77 11.7 95.35 13.44 95.53 15.81L104.46 12.56Z" fill="#112211" fill-opacity="1.000000" fill-rule="nonzero"/>
	<path id="Subtract" d="" fill="#8DD3BB" fill-opacity="1.000000" fill-rule="nonzero"/>
	<path id="Vector" d="M43.31 4.53C38.86 2.89 35.66 6.42 35.66 6.42L38.69 8.18C39.83 7.53 40.34 8.17 40.47 8.51C40.56 8.76 40.44 9.03 40.34 9.17L39.6 10.11C35.61 14.92 30.92 19.1 25.68 22.52C25.68 22.52 24.1 23.79 23.26 23.81C22.55 23.83 22.24 23.23 22.83 22.38L21.37 19.07C21.37 19.07 17.55 21.57 18.29 25.96C18.6 27.81 20.35 29.13 22.2 28.8C23.15 28.63 24.31 28.17 25.75 27.22L28.38 25.5C33.61 22.08 38.31 17.88 42.29 13.06L43.2 11.97C44.56 10.42 45.17 9.14 45.38 8.13C45.7 6.59 44.79 5.07 43.31 4.53Z" fill="#8DD3BB" fill-opacity="1.000000" fill-rule="nonzero"/>
</svg>
