<svg width="24.000000" height="24.000000" viewBox="0 0 24 24" fill="none" xmlns="http://www.w3.org/2000/svg" xmlns:xlink="http://www.w3.org/1999/xlink">
	<desc>
			Created with Pixso.
	</desc>
	<defs>
		<clipPath id="clip29_660">
			<rect id="Fill=False" rx="-0.500000" width="23.000000" height="23.000000" transform="translate(0.500000 0.500000)" fill="white" fill-opacity="0"/>
		</clipPath>
	</defs>
	<rect id="Fill=False" rx="-0.500000" width="23.000000" height="23.000000" transform="translate(0.500000 0.500000)" fill="#FFFFFF" fill-opacity="0"/>
	<g clip-path="url(#clip29_660)">
		<path id="Vector" d="M11.25 7.5L3.75 7.5C3.55 7.5 3.36 7.57 3.21 7.71C3.07 7.86 3 8.05 3 8.25L3 12.75C3 12.94 3.07 13.13 3.21 13.28C3.36 13.42 3.55 13.5 3.75 13.5L11.25 13.5C15.06 13.5 19.12 18.57 19.12 18.57C19.4 18.94 20.25 18.69 20.25 18.11L20.25 2.9C20.25 2.32 19.45 2.02 19.12 2.44C19.12 2.44 15.06 7.5 11.25 7.5ZM3 12C3 12 2.25 11.71 2.25 10.5C2.25 9.28 3 9 3 9M21 11.53C21 11.53 21.75 11.32 21.75 10.5C21.75 9.67 21 9.46 21 9.46M12 7.5L12 13.5M5.25 7.5L5.25 13.5" stroke="#000000" stroke-opacity="1.000000" stroke-width="1.500000" stroke-linejoin="round"/>
		<path id="Vector" d="M6.75 13.5L6.75 21.37C6.75 21.47 6.78 21.56 6.85 21.64C6.92 21.71 7.02 21.75 7.12 21.75L9.6 21.75C9.72 21.75 9.84 21.72 9.94 21.66C10.05 21.61 10.14 21.53 10.21 21.44C10.28 21.35 10.32 21.24 10.34 21.12C10.36 21 10.36 20.89 10.32 20.77C9.93 19.51 9 18.09 9 15.75L9.75 15.75C9.94 15.75 10.13 15.67 10.28 15.53C10.42 15.38 10.5 15.19 10.5 15L10.5 14.25C10.5 14.05 10.42 13.86 10.28 13.71C10.13 13.57 9.94 13.5 9.75 13.5L9 13.5" stroke="#000000" stroke-opacity="1.000000" stroke-width="1.500000" stroke-linejoin="round" stroke-linecap="round"/>
	</g>
</svg>
