<svg width="24.000000" height="24.000000" viewBox="0 0 24 24" fill="none" xmlns="http://www.w3.org/2000/svg" xmlns:xlink="http://www.w3.org/1999/xlink">
	<desc>
			Created with Pixso.
	</desc>
	<defs>
		<clipPath id="clip29_519">
			<rect id="Filled=False" rx="-0.500000" width="23.000000" height="23.000000" transform="translate(0.500000 0.500000)" fill="white" fill-opacity="0"/>
		</clipPath>
	</defs>
	<rect id="Filled=False" rx="-0.500000" width="23.000000" height="23.000000" transform="translate(0.500000 0.500000)" fill="#FFFFFF" fill-opacity="0"/>
	<g clip-path="url(#clip29_519)">
		<path id="Vector" d="M10.12 9L10.12 15.74C10.13 16.23 10.33 16.7 10.68 17.05C11.04 17.39 11.51 17.59 12 17.59C12.5 17.59 12.97 17.39 13.32 17.05C13.67 16.7 13.87 16.23 13.88 15.74L13.89 6.9C13.89 6.48 13.81 6.06 13.66 5.67C13.5 5.28 13.26 4.92 12.97 4.62C12.67 4.32 12.32 4.08 11.93 3.92C11.54 3.76 11.12 3.68 10.7 3.68C10.28 3.68 9.86 3.76 9.47 3.92C9.09 4.08 8.73 4.32 8.44 4.62C8.14 4.92 7.91 5.28 7.75 5.67C7.59 6.06 7.51 6.48 7.52 6.9L7.52 15.8C7.51 16.39 7.62 16.98 7.84 17.53C8.06 18.08 8.39 18.58 8.81 19.01C9.22 19.43 9.72 19.76 10.27 19.99C10.81 20.22 11.4 20.34 11.99 20.34C12.59 20.34 13.18 20.22 13.72 19.99C14.27 19.76 14.77 19.43 15.18 19.01C15.6 18.58 15.93 18.08 16.15 17.53C16.37 16.98 16.48 16.39 16.47 15.8L16.47 7.48" stroke="#000000" stroke-opacity="1.000000" stroke-width="1.500000" stroke-linecap="round"/>
	</g>
</svg>
