<svg width="22.500977" height="19.500000" viewBox="0 0 22.501 19.5" fill="none" xmlns="http://www.w3.org/2000/svg" xmlns:xlink="http://www.w3.org/1999/xlink">
	<desc>
			Created with Pixso.
	</desc>
	<defs/>
	<path id="Vector" d="M17.51 8.26L14.47 8.34C14.46 8.34 14.44 8.34 14.43 8.33C14.41 8.32 14.4 8.31 14.39 8.3L8.32 0.91C8.28 0.86 8.24 0.82 8.18 0.79C8.13 0.77 8.07 0.75 8.01 0.75L6.75 0.75L10.17 8.29C10.18 8.31 10.18 8.33 10.18 8.35C10.18 8.37 10.17 8.38 10.16 8.4C10.15 8.42 10.13 8.43 10.12 8.44C10.1 8.45 10.08 8.45 10.06 8.45L4.36 8.53C4.3 8.54 4.24 8.52 4.19 8.5C4.13 8.47 4.08 8.43 4.05 8.39L2.31 6.28C2.17 6.1 1.91 6 1.68 6L0.8 6C0.74 6 0.75 6.05 0.76 6.11L1.69 9.46C1.76 9.64 1.76 9.84 1.69 10.02L0.76 13.35C0.73 13.45 0.74 13.5 0.84 13.5L1.68 13.5C2.07 13.5 2.12 13.45 2.31 13.2L4.08 11.06C4.12 11.01 4.16 10.97 4.22 10.95C4.27 10.92 4.33 10.91 4.39 10.91L10.05 11.04C10.07 11.04 10.09 11.04 10.1 11.05C10.12 11.06 10.14 11.08 10.15 11.1C10.16 11.11 10.17 11.13 10.17 11.15C10.17 11.17 10.17 11.2 10.16 11.21L6.75 18.75L8 18.75C8.06 18.74 8.12 18.72 8.17 18.7C8.22 18.67 8.27 18.63 8.31 18.58L14.39 11.2C14.41 11.17 14.49 11.16 14.52 11.16L17.51 11.24C17.67 11.25 18.2 11.25 18.36 11.25C20.43 11.25 21.75 10.68 21.75 9.75C21.75 8.81 20.44 8.25 18.36 8.25C18.2 8.25 17.66 8.25 17.51 8.26Z" stroke="CurrentColor" stroke-opacity="1.000000" stroke-width="1.500000" stroke-linejoin="round"/>
</svg>
