<svg width="15.804688" height="15.804822" viewBox="0 0 15.8047 15.8048" fill="none" xmlns="http://www.w3.org/2000/svg" xmlns:xlink="http://www.w3.org/1999/xlink">
	<desc>
			Created with Pixso.
	</desc>
	<defs/>
	<path id="Vector" d="M13.47 2.33C12.74 1.59 11.87 1.01 10.91 0.61C9.95 0.21 8.93 0 7.89 2.38e-5C6.85 -0.01 5.82 0.19 4.87 0.59C3.91 0.99 3.04 1.57 2.3 2.3C1.57 3.04 0.99 3.91 0.59 4.87C0.2 5.82 -0.01 6.85 0 7.89C0 8.93 0.2 9.95 0.61 10.91C1.01 11.87 1.59 12.74 2.33 13.47C3.06 14.2 3.93 14.79 4.88 15.19C5.84 15.59 6.87 15.8 7.91 15.8C8.94 15.8 9.97 15.6 10.93 15.2C11.89 14.81 12.76 14.23 13.49 13.49C14.23 12.76 14.81 11.89 15.2 10.93C15.6 9.97 15.8 8.94 15.8 7.91C15.8 6.87 15.59 5.84 15.19 4.88C14.79 3.93 14.2 3.06 13.47 2.33ZM5.65 8.04C5.62 7.59 5.73 7.13 5.97 6.74C6.2 6.35 6.55 6.04 6.97 5.85C7.39 5.66 7.85 5.6 8.3 5.68C8.75 5.77 9.16 5.98 9.49 6.31C9.81 6.63 10.03 7.04 10.11 7.49C10.19 7.94 10.14 8.41 9.95 8.83C9.76 9.24 9.45 9.59 9.05 9.83C8.66 10.06 8.21 10.17 7.75 10.14C7.21 10.11 6.69 9.87 6.31 9.49C5.92 9.1 5.69 8.59 5.65 8.04ZM14.09 5.7L10.7 5.91C10.68 5.91 10.66 5.9 10.63 5.89C10.61 5.88 10.59 5.87 10.58 5.85C10.4 5.61 10.18 5.4 9.95 5.22C9.93 5.2 9.91 5.18 9.9 5.16C9.89 5.14 9.89 5.12 9.89 5.09L10.09 1.71C10.1 1.68 10.1 1.66 10.11 1.64C10.12 1.62 10.14 1.61 10.16 1.6C10.18 1.58 10.2 1.58 10.22 1.57C10.24 1.57 10.26 1.58 10.29 1.58C11.18 1.92 11.99 2.45 12.67 3.13C13.35 3.8 13.87 4.62 14.21 5.51C14.22 5.53 14.22 5.55 14.22 5.58C14.22 5.6 14.21 5.62 14.2 5.64C14.19 5.66 14.17 5.67 14.15 5.68C14.13 5.69 14.11 5.7 14.09 5.7L14.09 5.7ZM5.7 1.71L5.91 5.09C5.91 5.12 5.9 5.14 5.89 5.16C5.88 5.18 5.87 5.2 5.85 5.22C5.61 5.4 5.4 5.61 5.22 5.85C5.2 5.87 5.18 5.88 5.16 5.89C5.14 5.9 5.12 5.91 5.09 5.91L1.71 5.7C1.68 5.7 1.66 5.69 1.64 5.68C1.62 5.67 1.61 5.66 1.6 5.64C1.58 5.62 1.58 5.6 1.58 5.58C1.57 5.55 1.58 5.53 1.58 5.51C1.92 4.62 2.45 3.8 3.13 3.13C3.8 2.45 4.62 1.92 5.51 1.58C5.53 1.58 5.55 1.57 5.58 1.57C5.6 1.58 5.62 1.58 5.64 1.6C5.66 1.61 5.67 1.62 5.68 1.64C5.69 1.66 5.7 1.68 5.7 1.71ZM1.71 10.09L5.09 9.89C5.12 9.89 5.14 9.89 5.16 9.9C5.18 9.91 5.2 9.93 5.22 9.94C5.4 10.18 5.61 10.4 5.85 10.58C5.87 10.59 5.88 10.61 5.89 10.63C5.9 10.65 5.91 10.68 5.91 10.7L5.7 14.09C5.7 14.11 5.69 14.13 5.68 14.15C5.67 14.17 5.66 14.19 5.64 14.2C5.62 14.21 5.6 14.22 5.58 14.22C5.55 14.22 5.53 14.22 5.51 14.21C4.62 13.87 3.8 13.34 3.13 12.67C2.45 11.99 1.92 11.18 1.58 10.28C1.58 10.26 1.57 10.24 1.58 10.22C1.58 10.2 1.58 10.18 1.6 10.16C1.61 10.14 1.62 10.12 1.64 10.11C1.66 10.1 1.68 10.09 1.71 10.09ZM10.09 14.09L9.89 10.7C9.89 10.68 9.89 10.65 9.9 10.63C9.91 10.61 9.93 10.59 9.94 10.58C10.18 10.4 10.4 10.18 10.58 9.94C10.59 9.93 10.61 9.91 10.63 9.9C10.65 9.89 10.68 9.89 10.7 9.89L14.09 10.09C14.11 10.09 14.13 10.1 14.15 10.11C14.17 10.12 14.19 10.14 14.2 10.16C14.21 10.18 14.22 10.2 14.22 10.22C14.22 10.24 14.22 10.26 14.21 10.28C13.87 11.18 13.34 11.99 12.67 12.67C11.99 13.34 11.18 13.87 10.28 14.21C10.26 14.22 10.24 14.22 10.22 14.22C10.2 14.22 10.18 14.21 10.16 14.2C10.14 14.19 10.12 14.17 10.11 14.15C10.1 14.13 10.09 14.11 10.09 14.09Z" fill="#000000" fill-opacity="1.000000" fill-rule="nonzero"/>
</svg>
