<svg width="14.625977" height="15.750092" viewBox="0 0 14.626 15.7501" fill="none" xmlns="http://www.w3.org/2000/svg" xmlns:xlink="http://www.w3.org/1999/xlink">
	<desc>
			Created with Pixso.
	</desc>
	<defs/>
	<path id="Vector" d="M10 1.14C9.32 0.4 8.36 0 7.31 0C6.25 0 5.29 0.4 4.61 1.13C3.92 1.88 3.58 2.88 3.66 3.97C3.82 6.12 5.45 7.87 7.31 7.87C9.16 7.87 10.79 6.12 10.95 3.97C11.03 2.89 10.69 1.89 10 1.14ZM13.5 15.75L1.12 15.75C0.96 15.75 0.8 15.71 0.65 15.65C0.5 15.58 0.37 15.48 0.27 15.35C0.04 15.08 -0.05 14.71 0.02 14.33C0.31 12.68 1.24 11.3 2.7 10.33C3.99 9.47 5.63 9 7.31 9C8.99 9 10.63 9.47 11.92 10.33C13.38 11.3 14.3 12.68 14.6 14.33C14.67 14.71 14.57 15.08 14.35 15.35C14.24 15.48 14.11 15.58 13.96 15.65C13.82 15.71 13.66 15.75 13.5 15.75Z" fill="#000000" fill-opacity="1.000000" fill-rule="nonzero"/>
</svg>
